<?xml version="1.0" encoding="utf-8"?>
<!-- Generator: Adobe Illustrator 22.1.0, SVG Export Plug-In . SVG Version: 6.00 Build 0)  -->
<svg version="1.1" id="Layer_1" xmlns="http://www.w3.org/2000/svg" xmlns:xlink="http://www.w3.org/1999/xlink" x="0px" y="0px"
	 viewBox="0 0 333.3 64.5" style="enable-background:new 0 0 333.3 64.5;" xml:space="preserve">
<style type="text/css">
	.st0{fill:#033C5B;}
</style>
<path class="st0" d="M70.7,37c0-9.8,6.8-16.3,17-16.3c4.2,0,8.2,2.9,11.1,5.1l-4.6,5c-1.6-1.4-3.7-3.3-6.4-3.3c-5.3,0-10,3.8-10,9.6
	c0,5.7,4.7,9.5,10,9.5c2.9,0,5.1-1.8,6.9-3.7l4.5,5.3c-3,3-7.1,5.3-11.8,5.3C77.4,53.4,70.7,46.8,70.7,37z M42.7,37
	c0-9.8,6.8-16.3,17-16.3c4.2,0,8.2,2.9,11.1,5.1l-4.6,5c-1.6-1.4-3.7-3.3-6.4-3.3c-5.3,0-10,3.8-10,9.6c0,5.7,4.7,9.5,10,9.5
	c2.9,0,5.1-1.8,6.9-3.7l4.5,5.3c-3,3-7.1,5.3-11.8,5.3C49.4,53.4,42.7,46.8,42.7,37z M128.1,39.7l-21.7,0.1c0.6,4.4,2.9,7.3,7.5,7.3
	c3.2,0,6.3-1.5,8.1-3.8l4.9,4c-2.8,4.2-6.9,6.1-12.9,6.1c-9.7,0-16.1-6.4-16.1-16.1c0-9.9,6.3-16.6,15.7-16.6
	c9.4,0,14.4,6,14.4,15.6C128.2,37.4,128.3,38.8,128.1,39.7z M105.9,34.8h15.3c-0.6-4.8-3.1-7.9-7.4-7.9
	C109.6,26.9,106.5,30,105.9,34.8z M330.9,39.7l-21.7,0.1c0.6,4.4,2.9,7.3,7.5,7.3c3.2,0,6.3-1.5,8.1-3.8l4.9,4
	c-2.8,4.2-6.9,6.1-12.9,6.1c-9.7,0-16.1-6.4-16.1-16.1c0-9.9,6.3-16.6,15.7-16.6c9.4,0,14.4,6,14.4,15.6
	C330.9,37.4,331,38.8,330.9,39.7z M308.6,34.8h15.3c-0.6-4.8-3.1-7.9-7.4-7.9C312.3,26.9,309.3,30,308.6,34.8z M152.8,48.5l2.8-4.7
	c2.8,1.7,6,3.1,9,3.1c2.8,0,5.3-1,5.3-2.9c0-1.9-2.7-3.3-5.7-4.1l-2.5-0.7c-5.1-1.4-8-3.4-8-8.2c0-6.1,4.2-10.1,11.3-10.1
	c4.5,0,8.2,1.8,11.1,3.8l-3.2,5.1c-2.4-1.4-4.8-2.9-7.5-2.9c-2.7,0-4.6,1-4.6,2.8c0,1.8,1.9,2.7,4.5,3.4l2.5,0.7
	c5.1,1.4,9.2,3.8,9.2,9.2c0,5.9-5,9.8-12.5,9.8C160,52.8,155.6,51,152.8,48.5z M128.6,48.5l2.8-4.7c2.8,1.7,6,3.1,9,3.1
	c2.8,0,5.3-1,5.3-2.9c0-1.9-2.7-3.3-5.7-4.1l-2.5-0.7c-5.1-1.4-8-3.4-8-8.2c0-6.1,4.2-10.1,11.3-10.1c4.5,0,8.2,1.8,11.1,3.8
	l-3.2,5.1c-2.4-1.4-4.8-2.9-7.5-2.9c-2.7,0-4.6,1-4.6,2.8c0,1.8,1.9,2.7,4.5,3.4l2.5,0.7c5.1,1.4,9.2,3.8,9.2,9.2
	c0,5.9-5,9.8-12.5,9.8C135.8,52.8,131.3,51,128.6,48.5z M178.9,49.8l16.1-14c2.7-2.8,8.8-6.3,8.8-14.1c0-3.6-3.4-6-7.3-6
	c-4.3,0-8.4,2.4-10.8,7.1l-6-5.2c4.3-5.8,7.9-9.8,16.5-9.8c10,0,16.6,5.4,16.6,13.1c0,8.2-3.9,13.2-11.7,19l-9.5,8.9l21.8-0.2v8
	h-34.5V49.8z M215.2,32.1c0-12.6,8.7-21.2,21.8-21.2c6.7,0,11.1,2.3,15.1,6.6l-4.9,5c-2.3-3-5.2-4.9-10.1-4.9
	c-8.3,0-14.1,5.8-14.1,14.5c0,8.8,4.9,14.3,13.2,14.3c5.6,0,8.3-1.5,11.4-5.2l4.3,4.7c-3.6,3.6-7.4,7-14.9,7
	C224,52.9,215.2,44.8,215.2,32.1z M280.8,33.1v19.5h-7l-0.2-3.9c-2.1,3.2-6.2,4.5-10,4.5c-6.4,0-10.7-3.8-10.7-9.6
	c0-6,3.8-9.9,13.2-9.9c2.1,0,5.3,0.5,7.7,1V34c0-4.1-3.6-6.9-8.3-6.9c-2.9,0-5.3,0.9-7.2,2.5l-3.4-4.6c3.3-2.7,7.2-4,12.6-4
	C275.4,21,280.8,25.8,280.8,33.1z M273.8,39.1c-2-0.4-4.9-1.2-6.7-1.2c-3.7,0-7.4,1.3-7.4,5.5c0,3.6,3,4.5,6.2,4.5
	C269.5,47.9,273.8,45.5,273.8,39.1z M301.8,21.4l-0.1,6.9c-6.2,0-10.1,4.8-10.1,9.3v15.1h-7.6V21.8h7.3l0.1,5.5
	C293.8,24.4,297,21.4,301.8,21.4z M34.2,26.4L28,11.7h-8.6L2,52.8h8.6h2.2C13.2,50.3,16.3,36.8,34.2,26.4z M47,23.6
	c-0.1-0.1-5.6,1.9-11.2,6.7l0,0c-1.9,1.6-3.7,3.5-5.3,5.7c0,0,0,0.1-0.1,0.1c-0.2,0.3-0.5,0.7-0.7,1c0,0.1-0.1,0.1-0.1,0.2
	c-0.2,0.3-0.4,0.7-0.6,1c0,0.1-0.1,0.1-0.1,0.2c-0.2,0.3-0.4,0.7-0.6,1.1c0,0.1-0.1,0.2-0.1,0.3c-0.2,0.4-0.3,0.7-0.5,1.1
	c0,0.1-0.1,0.2-0.1,0.2c-0.5,1.1-0.8,2.2-1.1,3.4c-0.1,0.3-0.1,0.5-0.2,0.8c-0.1,0.2-0.1,0.5-0.1,0.7c0,0.3-0.1,0.5-0.2,0.8h0
	c-0.3,1.8-0.4,3.8-0.3,5.9h11h8.6l-8.7-20.6C41.7,26.4,47.2,23.8,47,23.6z"/>
</svg>
