<?xml version="1.0" encoding="utf-8"?>
<!-- Generator: Adobe Illustrator 24.2.3, SVG Export Plug-In . SVG Version: 6.00 Build 0)  -->
<svg version="1.1" id="Layer_1" xmlns="http://www.w3.org/2000/svg" xmlns:xlink="http://www.w3.org/1999/xlink" x="0px" y="0px"
	 viewBox="0 0 35.7 39.7" style="enable-background:new 0 0 35.7 39.7;" xml:space="preserve">
<style type="text/css">
	.st0{fill:#FFFFFF;}
</style>
<g id="uCHaq4.tif" transform="translate(0)">
	<g id="Group_651">
		<path id="Path_309" class="st0" d="M35.6,24c0,4.2,0,8.5,0,12.7c0,1.6-1.2,2.9-2.8,2.9c-1.5,0-2.8-1.2-2.9-2.7c0-0.2,0-0.4,0-0.5
			c0-8.3,0-16.7,0-25c-0.1-1.6,1.1-2.9,2.7-3c1.6-0.1,2.9,1.1,3,2.7c0,0,0,0.1,0,0.1c0,1.3,0,2.6,0,3.9L35.6,24z"/>
		<path id="Path_310" class="st0" d="M10,27.9c0-3,0-5.9,0-8.9c0-1.6,1.2-2.9,2.7-2.9s2.9,1.2,2.9,2.7c0,0,0,0.1,0,0.1
			c0,6,0,11.9,0,17.9c0,1.6-1.3,2.8-2.8,2.8c-1.6,0-2.8-1.3-2.8-2.8C10,33.8,10,30.8,10,27.9z"/>
		<path id="Path_311" class="st0" d="M0,30.9c0-2,0-3.9,0-5.9c0-1.6,1.3-2.8,2.9-2.8c0.9,0,1.8,0.5,2.3,1.3c0.3,0.5,0.5,1,0.5,1.5
			c0,4,0,7.9,0,11.9c0,1.6-1.3,2.8-2.9,2.8S0,38.4,0,36.8l0,0C0,34.8,0,32.8,0,30.9z"/>
		<path id="Path_312" class="st0" d="M25.7,30.9c0,2,0,3.9,0,5.9c0,1.3-0.9,2.4-2.2,2.8c-1.3,0.3-2.6-0.3-3.2-1.4
			c-0.2-0.4-0.3-0.9-0.3-1.3c0-3.9,0-7.9,0-11.8c0-1.6,1.3-2.8,2.8-2.8c1.6,0,2.8,1.3,2.8,2.8C25.7,27,25.7,28.9,25.7,30.9z"/>
		<path id="Path_313" class="st0" d="M4.6,15.6c0.1,0.8-0.4,1.6-1.3,1.8c-1,0.3-2-0.3-2.3-1.3c-0.2-0.6,0-1.3,0.4-1.8
			C2,13.8,2.9,13.6,3.6,14c0.2,0.1,0.5,0.1,0.7,0c2.1-1.3,4.2-2.6,6.3-3.9C10.9,9.9,11,9.7,11,9.5c-0.1-1,0.7-1.9,1.8-1.9
			c1-0.1,1.9,0.7,1.9,1.8c0,0.1,0,0.1,0,0.2c0,0.2,0.1,0.4,0.3,0.5c2.1,1.3,4.3,2.6,6.4,3.9c0.2,0.1,0.4,0.1,0.6,0
			c0.3-0.1,0.7-0.2,1-0.2c0.2,0,0.4-0.1,0.5-0.2c2.3-3.2,4.6-6.4,6.9-9.6c0.1-0.1,0.2-0.3,0.3-0.4c0.4-0.3,0.5-0.8,0.3-1.3
			c-0.2-0.8,0.1-1.6,0.8-2c0.9-0.5,2-0.3,2.6,0.6c0.3,0.5,0.4,1.2,0.1,1.7c-0.3,0.8-1.1,1.2-1.9,1.1c-0.2,0-0.4,0-0.5,0.2
			c-2.5,3.5-5,6.9-7.5,10.4c-0.2,0.2-0.2,0.4-0.1,0.6c0.3,0.7,0.1,1.5-0.4,2c-0.5,0.5-1.3,0.7-2,0.4c-0.7-0.3-1.2-1-1.1-1.7
			c0-0.2-0.1-0.4-0.3-0.5c-2.1-1.3-4.3-2.6-6.4-3.9c-0.2-0.1-0.4-0.1-0.5,0c-0.5,0.3-1.2,0.3-1.8,0c-0.1-0.1-0.3-0.1-0.5,0
			c-2.2,1.3-4.4,2.7-6.5,4C4.8,15.3,4.7,15.5,4.6,15.6z"/>
	</g>
</g>
</svg>
