<?xml version="1.0" encoding="utf-8"?>
<!-- Generator: Adobe Illustrator 24.1.3, SVG Export Plug-In . SVG Version: 6.00 Build 0)  -->
<svg version="1.1" id="Layer_1" xmlns="http://www.w3.org/2000/svg" xmlns:xlink="http://www.w3.org/1999/xlink" x="0px" y="0px"
	 viewBox="0 0 120 120" style="enable-background:new 0 0 120 120;" xml:space="preserve">
<style type="text/css">
	.st0{fill:#12B258;}
</style>
<path class="st0" d="M29.9,8C39.1,2.7,49.1,0,60,0s20.9,2.7,30.1,8c9.2,5.4,16.5,12.6,21.9,21.9c5.4,9.2,8,19.2,8,30.1
	s-2.7,20.9-8,30.1c-5.4,9.2-12.6,16.5-21.9,21.9c-9.2,5.4-19.2,8-30.1,8s-20.9-2.7-30.1-8C20.7,106.6,13.4,99.3,8,90.1
	C2.7,80.9,0,70.9,0,60s2.7-20.9,8-30.1C13.4,20.7,20.7,13.4,29.9,8z M54.6,57.7L44.3,47.4L26.8,64.9l27.7,27.8l41.3-41.3L78.3,34
	L54.6,57.7z"/>
</svg>
