<?xml version="1.0" encoding="utf-8"?>
<!-- Generator: Adobe Illustrator 24.2.3, SVG Export Plug-In . SVG Version: 6.00 Build 0)  -->
<svg version="1.1" id="Layer_1" xmlns="http://www.w3.org/2000/svg" xmlns:xlink="http://www.w3.org/1999/xlink" x="0px" y="0px"
	 viewBox="0 0 45.7 36.2" style="enable-background:new 0 0 45.7 36.2;" xml:space="preserve">
<style type="text/css">
	.st0{fill:#48484A;}
</style>
<path id="icon-dashboard" class="st0" d="M24.8,25.6c-0.8,0.8-2.4,0.3-3.4-0.8s-1.3-2.6-0.5-3.4s12.4-8.4,12.4-8.4
	S25.6,24.8,24.8,25.6z M14.8,5.5c2.1-1,4.3-1.6,6.6-1.8v2.1h3.2V3.7c2.4,0.2,4.7,0.8,6.9,1.8l-1.1,1.8c1.1,0.5,1.8,1.1,2.9,1.6
	l1.1-1.8c1.8,1.3,3.4,2.9,4.8,4.8l-1.8,1.3c0.7,0.9,1.2,1.9,1.6,2.9l1.8-1.1c1.2,1.9,1.8,4.1,1.8,6.3h-2.1v3.2h2.1
	c-0.2,2.3-0.8,4.5-1.8,6.6l-1.8-1c-0.5,1.1-1.1,1.8-1.6,2.9l4.8,2.9c2.5-3.8,3.9-8.3,4-12.9c0-12.7-10.3-23-23-23
	C10.3,0,0.3,10.6,0.3,23.2c0.1,4.6,1.4,9.1,4,12.9l2.9-1.6l0,0L9,33.5c-0.7-0.9-1.2-1.9-1.6-2.9l-1.8,0.8c-1-2.1-1.6-4.3-1.8-6.6
	h2.1v-3.2H3.7c0.2-2.4,0.8-4.7,1.8-6.9l1.8,1.1C7.9,14.8,8.4,14,9,12.9l-1.8-1.1C8.4,10,10,8.4,11.9,7.1L12.9,9
	c0.9-0.7,1.9-1.2,2.9-1.6L14.8,5.5z"/>
</svg>
