<?xml version="1.0" encoding="utf-8"?>
<!-- Generator: Adobe Illustrator 24.2.3, SVG Export Plug-In . SVG Version: 6.00 Build 0)  -->
<svg version="1.1" id="Layer_1" xmlns="http://www.w3.org/2000/svg" xmlns:xlink="http://www.w3.org/1999/xlink" x="0px" y="0px"
	 viewBox="0 0 174.5 174.6" style="enable-background:new 0 0 174.5 174.6;" xml:space="preserve">
<style type="text/css">
	.st0{fill:#FFFFFF;}
</style>
<g id="MlLa8Z_1_">
	<g>
		<path class="st0" d="M118.2,168.6c0-20.3-0.1-39.9,0.1-59.6c0-1.1,1.9-3,3.1-3.1c4-0.4,8,0.1,12-0.3c1.5-0.2,3.8-1.8,4-3
			c1.2-6.7,1.9-13.4,2.9-20.9c-7.5,0-14.5,0-22.1,0c0-6-0.4-11.3,0.1-16.5c0.4-4.6,3.7-6.9,8.3-7c4.5-0.1,9,0,14.3,0
			c0-6.8,0.1-13-0.1-19.3c0-0.8-1.6-2.2-2.5-2.2c-7.3-0.1-14.8-0.8-21.9,0.3C102.5,39,94,49.7,93.7,63.9c-0.1,4.3-0.2,8.7,0,13
			c0.1,3.1-1.2,4.2-4.1,4.1c-3.5-0.1-7,0-10.5,0c-3,0-4.6,0.9-4.5,4.4c0.2,5.3,0.1,10.7,0,16c0,2.8,1.1,3.9,3.9,3.8
			c4.8-0.1,9.6,0,14.7,0c0.2,1.8,0.4,3.3,0.4,4.7c0,19.8-0.1,39.6,0.1,59.5c0,3.8-1,5.3-5,5.3C45.4,174.7,8.6,145.1,1.3,102
			C-6.9,53.9,24.2,9.9,72.4,1.4c49.6-8.8,95.2,26.2,101.3,74.4c4.9,38.7-16.1,76.4-52,91.6C120.9,167.7,119.9,168,118.2,168.6z"/>
	</g>
</g>
</svg>
