<?xml version="1.0" encoding="utf-8"?>
<!-- Generator: Adobe Illustrator 24.2.3, SVG Export Plug-In . SVG Version: 6.00 Build 0)  -->
<svg version="1.1" id="Layer_1" xmlns="http://www.w3.org/2000/svg" xmlns:xlink="http://www.w3.org/1999/xlink" x="0px" y="0px"
	 viewBox="0 0 26.9 21.9" style="enable-background:new 0 0 26.9 21.9;" xml:space="preserve">
<style type="text/css">
	.st0{fill:#353535;}
</style>
<path id="Path_13" class="st0" d="M26.1,4.3H0.8C0.4,4.3,0,4,0,3.6V0.8C0,0.4,0.4,0,0.8,0h25.3c0.4,0,0.8,0.4,0.8,0.8v2.8
	C26.9,4,26.5,4.3,26.1,4.3z M18.2,21.1v-2.8c0-0.4-0.3-0.8-0.8-0.8H9.5c-0.4,0-0.8,0.3-0.8,0.8v2.8c0,0.4,0.4,0.8,0.8,0.8h7.9
	C17.8,21.9,18.2,21.5,18.2,21.1L18.2,21.1z M21.6,12.3V9.6c0-0.4-0.4-0.8-0.8-0.8H6c-0.4,0-0.8,0.4-0.8,0.8v2.8
	c0,0.4,0.4,0.8,0.8,0.8h14.8C21.3,13.1,21.6,12.8,21.6,12.3L21.6,12.3z"/>
</svg>
