<?xml version="1.0" encoding="utf-8"?>
<!-- Generator: Adobe Illustrator 24.2.3, SVG Export Plug-In . SVG Version: 6.00 Build 0)  -->
<svg version="1.1" id="Layer_1" xmlns="http://www.w3.org/2000/svg" xmlns:xlink="http://www.w3.org/1999/xlink" x="0px" y="0px"
	 viewBox="0 0 10 10" style="enable-background:new 0 0 10 10;" xml:space="preserve">
<style type="text/css">
	.st0{fill:#FFFFFF;}
</style>
<path id="google-plus" class="st0" d="M5,0.2C2.4,0.2,0.2,2.3,0.2,5c0,2.6,2.1,4.8,4.8,4.8c2.6,0,4.8-2.1,4.8-4.8
	C9.8,2.4,7.6,0.2,5,0.2L5,0.2z M5,8.1C3.3,8.1,1.9,6.7,1.9,5S3.3,1.9,5,1.9c0.8,0,1.6,0.3,2.1,0.8L6.3,3.6C5.9,3.2,5.5,3.1,5,3.1
	C4,3.1,3.1,4,3.1,5S4,6.9,5,6.9c0.8,0,1.6-0.5,1.8-1.3H5v-1h3C8,4.7,8,5,8,5.1c0.1,1.6-1,2.8-2.6,3C5.3,8.1,5.1,8.1,5,8.1L5,8.1z"/>
</svg>
