<?xml version="1.0" encoding="utf-8"?>
<!-- Generator: Adobe Illustrator 24.2.3, SVG Export Plug-In . SVG Version: 6.00 Build 0)  -->
<svg version="1.1" id="Layer_1" xmlns="http://www.w3.org/2000/svg" xmlns:xlink="http://www.w3.org/1999/xlink" x="0px" y="0px"
	 viewBox="0 0 33.6 33.6" style="enable-background:new 0 0 33.6 33.6;" xml:space="preserve">
<style type="text/css">
	.st0{fill:#787878;}
	.st1{fill:#335FA7;}
</style>
<g id="Path_6">
	<path class="st0" d="M16.8,33.6c-4.4,0-8.6-1.7-11.8-4.8C1.8,25.7,0,21.5,0,17C0,12.5,1.7,8.2,4.8,5s7.4-5,11.8-5l0.2,0
		c0,0,0.1,0,0.1,0c9.2,0,16.7,7.5,16.7,16.7l-0.4,0l0.4,0c0,4.5-1.7,8.7-4.8,11.9c-3.1,3.2-7.4,5-11.8,5
		C16.9,33.6,16.9,33.6,16.8,33.6z M16.9,0.7C16.9,0.7,16.9,0.7,16.9,0.7l-0.2,0c-4.3,0-8.3,1.7-11.3,4.8c-3,3.1-4.6,7.1-4.6,11.4
		s1.7,8.3,4.8,11.3c3.1,3,7.1,4.7,11.4,4.6c4.3,0,8.3-1.7,11.3-4.8c3-3.1,4.6-7.1,4.6-11.4v0C32.9,7.9,25.7,0.7,16.9,0.7z"/>
</g>
<path id="Path_7" class="st1" d="M18.4,21.4H15c0-0.5,0-0.8,0-0.9c0-0.9,0.2-1.8,0.5-2.7c0.6-0.9,1.3-1.7,2.2-2.3
	c0.7-0.5,1.3-1.1,1.9-1.7c0.3-0.4,0.5-0.9,0.5-1.4c0-0.7-0.3-1.4-0.9-1.8C18.6,10,17.8,9.8,17,9.8c-0.9,0-1.7,0.3-2.4,0.8
	c-0.7,0.6-1.1,1.5-1.3,2.4l-3.4-0.4c0.1-1.5,0.8-3,2-4C13.3,7.5,15,6.9,16.8,7c1.8-0.1,3.6,0.5,5.1,1.6c1.2,0.9,1.9,2.3,1.9,3.8
	c0,0.8-0.2,1.6-0.7,2.3c-0.8,1.1-1.8,2.1-3,2.9c-0.6,0.4-1.1,0.9-1.5,1.5C18.4,20,18.3,20.7,18.4,21.4 M15,22.7h3.7v3.7H15V22.7z"/>
</svg>
