<?xml version="1.0" encoding="utf-8"?>
<!-- Generator: Adobe Illustrator 24.2.3, SVG Export Plug-In . SVG Version: 6.00 Build 0)  -->
<svg version="1.1" id="Layer_1" xmlns="http://www.w3.org/2000/svg" xmlns:xlink="http://www.w3.org/1999/xlink" x="0px" y="0px"
	 viewBox="0 0 44.4 33.1" style="enable-background:new 0 0 44.4 33.1;" xml:space="preserve">
<style type="text/css">
	.st0{fill:#FFFFFF;}
</style>
<g id="Group_667" transform="translate(0 0)">
	<path id="Path_316" class="st0" d="M44.4,11.5l-7.8,4.7l-5.4,3.2l-2.5,1.5v-5.4h-1c-0.5,0-1,0-1.5,0.2c-2.9,0.5-7.1,2.9-12,10.1
		c2.7-12.3,8.1-15.9,12-16.9c0.8-0.2,1.6-0.3,2.5-0.2l0,0V2.4l2.5,1.5l5.4,3.2L44.4,11.5z M30.9,25L26,28v0.5H4.9V4.9h17.2
		c0.4-0.3,1-0.4,1.5-0.5V0H0v33.1h30.9V25L30.9,25z"/>
</g>
</svg>
