<?xml version="1.0" encoding="utf-8"?>
<!-- Generator: Adobe Illustrator 24.2.3, SVG Export Plug-In . SVG Version: 6.00 Build 0)  -->
<svg version="1.1" id="Layer_1" xmlns="http://www.w3.org/2000/svg" xmlns:xlink="http://www.w3.org/1999/xlink" x="0px" y="0px"
	 viewBox="0 0 39.6 32.5" style="enable-background:new 0 0 39.6 32.5;" xml:space="preserve">
<style type="text/css">
	.st0{fill:#48484A;}
</style>
<path id="Path_314" class="st0" d="M29.6,32.5h-1.3c-0.6,0-0.8-0.2-0.8-0.8s-0.2-1.3-0.2-1.7c0-0.2-0.2-0.4-0.4-0.6
	c-0.4-0.4-1.1-0.4-1.5,0c0,0.1-0.1,0.1-0.1,0.2c-0.3,0.3-0.7,0.6-1,0.8c-0.2,0.2-0.6,0.2-0.8,0l-2.1-2.1c-0.2-0.3-0.2-0.7,0-1
	c0.5-0.4,0.8-0.9,1-1.5c0.2-0.1,0.2-0.4,0.1-0.6c0,0,0-0.1-0.1-0.1c-0.2-0.8-0.9-1.3-1.7-1.3c-0.4,0.1-0.7,0-1-0.2
	c-0.3,0-0.6-0.2-0.6-0.5c0-0.1,0-0.1,0-0.2v-2.7c0-0.4,0.2-0.6,0.4-0.6c0.6,0,1.3-0.2,1.9-0.4c0.6-0.1,1-0.7,0.9-1.4
	c0-0.2-0.1-0.4-0.3-0.5c0-0.2-0.4-0.6-0.8-0.8c-0.4-0.4-0.4-0.6,0-1c0.7-0.7,1.4-1.3,2.1-1.9c0.3-0.2,0.7-0.2,1,0
	c0.5,0.4,0.9,0.7,1.5,1c0.2,0.2,0.4,0.2,0.8,0c0.2,0,0.4-0.2,0.6-0.2c0.4,0,0.4-0.2,0.4-0.6c-0.2-0.7-0.2-1.4,0-2.1
	c0-0.3,0.2-0.6,0.5-0.6c0.1,0,0.1,0,0.2,0h2.7c0.3,0,0.6,0.2,0.6,0.5c0,0.1,0,0.1,0,0.2c0,0.6,0.2,1.3,0.2,1.9
	c0,0.2,0.2,0.4,0.4,0.6c0.8,0.6,1.5,0.4,1.9-0.2c0.2-0.2,0.6-0.4,1-0.8c0.4-0.2,0.6-0.2,0.8,0c0.6,0.7,1.2,1.4,1.9,2.1
	c0.3,0.3,0.4,0.8,0.2,1.1c0,0.1-0.1,0.1-0.2,0.2c-0.4,0.4-0.6,0.8-1,1.3c-0.2,0.2-0.2,0.4-0.2,0.8c0.2,0.8,0.6,1,1.5,1
	c0.4,0,0.9,0,1.3,0.2c0.2,0,0.4,0.4,0.4,0.6v2.9c0,0.4-0.2,0.4-0.4,0.6c-0.6,0-1.3,0.2-1.9,0.2c-0.4,0-0.6,0.2-0.6,0.4
	s-0.2,0.4-0.2,0.6V26c0.3,0.5,0.6,0.9,1,1.3c0.4,0.4,0.4,0.8,0,1l-1.9,1.9c-0.4,0.4-0.6,0.4-1,0s-0.8-0.6-1.3-1
	c-0.2-0.2-0.4-0.2-0.8,0c-0.8,0.2-1,0.6-1,1.5c0,0.4-0.2,0.8-0.2,1.3s-0.4,0.6-0.8,0.6L29.6,32.5z M29.6,17.6
	c-2.4,0-4.3,1.8-4.4,4.2c0.1,2.3,1.9,4.2,4.2,4.4c2.4,0,4.3-1.8,4.4-4.2C33.8,19.7,32,17.7,29.6,17.6C29.6,17.6,29.6,17.6,29.6,17.6
	L29.6,17.6z M14.1,14.9c4.1-0.1,7.4-3.5,7.3-7.6c-0.1-4-3.3-7.3-7.3-7.3C10,0,6.7,3.3,6.5,7.3C6.5,11.5,9.8,14.9,14.1,14.9
	C14,14.9,14,14.9,14.1,14.9z M18,26.6c-1.3-0.6-2.1-1.9-2.1-3.4v-2.7c0-1,0.4-2,1-2.7c-1,0.2-1.9,0.4-2.9,0.4
	c-3.4,0-6.6-1.6-8.6-4.4C2.2,14.7,0,17.6,0,21v3.6c0,2.8,2.3,5,5,5h13.2C17.7,28.7,17.6,27.6,18,26.6L18,26.6z"/>
</svg>
