<?xml version="1.0" encoding="utf-8"?>
<!-- Generator: Adobe Illustrator 24.2.3, SVG Export Plug-In . SVG Version: 6.00 Build 0)  -->
<svg version="1.1" id="Layer_1" xmlns="http://www.w3.org/2000/svg" xmlns:xlink="http://www.w3.org/1999/xlink" x="0px" y="0px"
	 viewBox="0 0 225.1 225.1" style="enable-background:new 0 0 225.1 225.1;" xml:space="preserve">
<style type="text/css">
	.st0{fill:#FCFEFF;}
</style>
<g id="pmXunE_1_">
	<g>
		<path class="st0" d="M112.5,0C50.4,0,0,50.4,0,112.5s50.4,112.5,112.5,112.5s112.5-50.4,112.5-112.5S174.7,0,112.5,0z M28.1,62.8
			c0-2.7,0.9-3.9,3.6-4.3c17.9-2.6,35.8-5.2,53.7-7.9c2.8-0.4,3.4,0.5,3.4,3.1c-0.1,16.6-0.1,33.3,0,49.9c0,2.9-1.1,3.6-3.8,3.6
			c-8.8-0.1-17.6,0-26.5,0c-8.7,0-17.3-0.1-26,0.1c-3,0.1-4.5-0.6-4.5-4C28.3,89.7,28.2,76.2,28.1,62.8z M88.9,169.7
			c0,2.9-0.9,3.7-3.8,3.2c-17.6-2.7-35.1-5.3-52.7-7.7c-3-0.4-4.3-1.5-4.2-4.7c0.2-13.3,0.1-26.6,0-39.9c0-3.3,1.1-4.3,4.4-4.2
			c8.6,0.2,17.3,0.1,26,0.1c8.8,0,17.6,0.1,26.5-0.1c3.1-0.1,4,0.9,4,4C88.7,136.8,88.8,153.2,88.9,169.7z M177.6,186.2
			C177.5,186.1,177.6,186.2,177.6,186.2c-17.4-2.5-34.8-5-52.3-7.5c-7.7-1.1-15.4-2.5-23.2-3.4c-3.1-0.3-3.9-1.6-3.8-4.4
			c0.1-16.8,0.1-33.6,0-50.4c0-3.8,1.6-4.3,4.8-4.2c24.8,0.1,49.6,0,74.4,0c1.4,1.3,1.2,3,1.2,4.7c0,20.1,0,40.3,0,60.4
			C178.6,183.1,178.8,184.8,177.6,186.2z M177.4,107.2c-24.6,0-49.2-0.1-73.9,0.1c-4.2,0-5.4-1.1-5.3-5.3c0.2-16.1,0.2-32.3,0-48.4
			c0-3.7,0.9-5,4.8-5.5c23.8-3.3,47.6-7,71.5-10.5c1-0.1,2-0.1,3-0.1c1.4,1.5,1,3.4,1,5.2c0,19.8,0,39.6,0,59.4
			C178.6,103.8,179,105.8,177.4,107.2z"/>
	</g>
</g>
</svg>
