<?xml version="1.0" encoding="utf-8"?>
<!-- Generator: Adobe Illustrator 24.2.3, SVG Export Plug-In . SVG Version: 6.00 Build 0)  -->
<svg version="1.1" id="Layer_1" xmlns="http://www.w3.org/2000/svg" xmlns:xlink="http://www.w3.org/1999/xlink" x="0px" y="0px"
	 viewBox="0 0 35.7 35.7" style="enable-background:new 0 0 35.7 35.7;" xml:space="preserve">
<path id="sticky-note" d="M24.9,23h10.8V1.9c0-1.1-0.9-1.9-1.9-1.9c0,0,0,0,0,0H1.9C0.9,0,0,0.9,0,1.9c0,0,0,0,0,0v31.9
	c0,1.1,0.8,1.9,1.9,1.9c0,0,0,0,0,0H23V24.9C23,23.8,23.8,23,24.9,23z M35.2,27.4l-7.8,7.8c-0.4,0.4-0.8,0.6-1.4,0.6h-0.5V25.5h10.2
	V26C35.7,26.5,35.5,27,35.2,27.4L35.2,27.4z"/>
</svg>
