<?xml version="1.0" encoding="utf-8"?>
<!-- Generator: Adobe Illustrator 24.2.3, SVG Export Plug-In . SVG Version: 6.00 Build 0)  -->
<svg version="1.1" id="Layer_1" xmlns="http://www.w3.org/2000/svg" xmlns:xlink="http://www.w3.org/1999/xlink" x="0px" y="0px"
	 viewBox="0 0 12.3 12.3" style="enable-background:new 0 0 12.3 12.3;" xml:space="preserve">
<style type="text/css">
	.st0{fill:#ffffff;}
</style>
<path class="st0" d="M0,12.3V7.5h4.9L3.1,9.2c0.3,0.3,0.6,0.5,1,0.7c1.7,0.9,3.8,0.6,5.1-0.8c0.4-0.4,0.7-0.8,0.9-1.3
	c0.2-0.5,0.7-0.7,1.2-0.5c0,0,0.1,0,0.1,0c0.5,0.2,0.6,0.8,0.4,1.3c0,0,0,0,0,0c-0.3,0.6-0.6,1.1-1,1.6c-1,1.1-2.5,1.9-4,2
	c0,0-0.1,0-0.1,0h-1c0,0,0,0-0.1,0c-1-0.1-2-0.4-2.9-1c-0.3-0.2-0.6-0.5-0.9-0.7c0,0,0,0-0.1,0.1C1.2,11.1,0.6,11.7,0,12.3
	C0.1,12.2,0,12.3,0,12.3L0,12.3z M12.3,4.8H7.4C8,4.2,8.6,3.6,9.2,3C9.1,2.9,9,2.8,8.8,2.7C6.9,1.3,4.2,1.6,2.7,3.5
	C2.6,3.7,2.4,4,2.3,4.2c0,0.1-0.1,0.3-0.2,0.4C1.8,5,1.2,5.1,0.8,4.8C0.5,4.6,0.3,4.1,0.5,3.7c0.3-0.7,0.7-1.3,1.2-1.8
	c0.9-1,2.2-1.7,3.5-1.9C7.1-0.2,9,0.4,10.3,1.7l0.1,0.1L12.2,0l0,0L12.3,4.8z"/>
</svg>
