<?xml version="1.0" encoding="utf-8"?>
<!-- Generator: Adobe Illustrator 24.2.3, SVG Export Plug-In . SVG Version: 6.00 Build 0)  -->
<svg version="1.1" id="Layer_1" xmlns="http://www.w3.org/2000/svg" xmlns:xlink="http://www.w3.org/1999/xlink" x="0px" y="0px"
	 viewBox="0 0 39.6 28.5" style="enable-background:new 0 0 39.6 28.5;" xml:space="preserve">
<style type="text/css">
	.st0{fill:#FFFFFF;}
</style>
<g id="Group_659" transform="translate(0)">
	<path id="Path_321" class="st0" d="M25-1.2c4.3,0,8.7,0,13,0c1.2-0.1,2.2,0.8,2.4,1.9c0,0.1,0,0.3,0,0.4c0,0.8,0,1.5,0,2.3
		c0,1.3-1,2.3-2.3,2.4c-0.1,0-0.1,0-0.2,0H12c-1.3,0.1-2.4-0.9-2.5-2.2c0-0.1,0-0.2,0-0.3c0-0.7,0-1.4,0-2C9.5,0,10.5-1.1,11.8-1.2
		c0.1,0,0.1,0,0.2,0C16.3-1.2,20.6-1.2,25-1.2z M30.7,27.3c2.4,0,4.9,0,7.3,0c1.3,0,2.4-1,2.4-2.2c0-0.1,0-0.1,0-0.2
		c0-0.6,0-1.3,0-1.9c0-0.2,0-0.5,0-0.7c-0.2-1.2-1.2-2-2.4-1.9H12.2c-0.1,0-0.2,0-0.3,0c-1.3,0-2.3,1.1-2.3,2.3c0,0.8,0,1.5,0,2.3
		c0,0.2,0,0.4,0.1,0.6c0.3,1,1.3,1.8,2.3,1.7c4.3,0,8.7,0,13,0L30.7,27.3z M11.9,9.6c-1.3,0-2.3,1-2.4,2.3c0,0,0,0,0,0.1
		c0,0.8,0,1.5,0,2.3c0,1.3,1,2.3,2.3,2.3c0,0,0,0,0,0c8.7,0,17.5,0,26.2,0c1.3,0,2.3-1,2.3-2.3c0,0,0,0,0,0c0-0.7,0-1.4,0-2.2
		c0.1-1.3-0.9-2.4-2.2-2.5c-0.1,0-0.2,0-0.3,0c-4.3,0-8.7,0-13,0C20.6,9.6,16.3,9.6,11.9,9.6L11.9,9.6z M0.8,4c0,1,0.7,1.8,1.7,1.8
		c0,0,0,0,0,0c1.2,0,2.3,0,3.5,0C7,5.8,7.7,5,7.7,4c0,0,0,0,0,0c0-1.1,0-2.3,0-3.4c0-1-0.8-1.7-1.7-1.8c-1.2,0-2.3,0-3.5,0
		c-1,0-1.7,0.8-1.7,1.8c0,0.6,0,1.2,0,1.7C0.8,2.9,0.8,3.4,0.8,4L0.8,4z M0.8,25.5c0,1,0.7,1.8,1.7,1.8c0,0,0,0,0.1,0
		c1.1,0,2.3,0,3.4,0c1,0,1.8-0.8,1.8-1.7c0,0,0,0,0,0c0-1.1,0-2.3,0-3.4c0-1-0.7-1.8-1.7-1.8c0,0,0,0,0,0c-1.2,0-2.3,0-3.5,0
		c-1,0-1.7,0.8-1.7,1.7c0,0,0,0,0,0.1c0,0.6,0,1.1,0,1.7S0.8,24.9,0.8,25.5L0.8,25.5z M2.6,9.6c-1,0-1.8,0.8-1.8,1.7c0,0,0,0,0,0.1
		c0,1.1,0,2.3,0,3.4c0,1,0.8,1.7,1.7,1.8c0,0,0,0,0,0c1.1,0,2.3,0,3.4,0c1,0,1.7-0.8,1.8-1.7c0,0,0,0,0,0c0-1.1,0-2.3,0-3.4
		c0-1-0.8-1.7-1.7-1.8c0,0,0,0,0,0c-0.6,0-1.1,0-1.7,0S3.1,9.6,2.6,9.6L2.6,9.6z"/>
</g>
</svg>
