<svg xmlns="http://www.w3.org/2000/svg" viewBox="0 0 22.7 17.8"><path fill="#FFFFFF" d="M36.484 14.22v-2.3h12.2v2.3z"/><circle cx="42.6" cy="13.1" r="4.6" fill="#FFFFFF"/><circle cx="42.6" cy="13.1" r="3.4" fill="#FFFFFF"/><path fill="#FFFFFF" d="M40.304 18.822L38.355 17.6l6.479-10.338 1.949 1.221z"/><path fill="#FFFFFF" d="M46.585 17.747l-1.992 1.15-6.1-10.566 1.992-1.15z"/><circle cx="8" cy="3.7" r="3.7" fill="#FFFFFF"/><path fill="#FFFFFF" d="M21.1 10.8c-.2-.8-.6-1.5-1.1-2l.9-1.4L19 6.2l-1 1.4c-.4-.1-.9-.2-1.4-.2-.4 0-.9.1-1.3.2l-.8-1.5-1.9 1.1.8 1.4c-.6.6-1 1.3-1.2 2.2h-1.7v2.3h1.7c.2.8.6 1.5 1.1 2l-.9 1.4 1.9 1.2.9-1.4c.4.1.9.2 1.4.2.4 0 .8-.1 1.2-.2l.8 1.4 1.9-1.1-.8-1.4c.6-.6 1-1.3 1.3-2.2h1.7v-2.3h-1.6zm-4.4 4c-1.6 0-2.8-1.3-2.8-2.8s1.3-2.8 2.8-2.8 2.8 1.3 2.8 2.8-1.3 2.8-2.8 2.8z"/><g fill="#FFFFFF"><path d="M21.1 10.8c-.2-.8-.6-1.5-1.1-2l.9-1.4L19 6.2l-1 1.4c-.4-.1-.9-.2-1.4-.2-.4 0-.9.1-1.3.2l-.8-1.5-1.9 1.1.8 1.4c-.6.6-1 1.3-1.2 2.2h-1.7v2.3h1.7c.2.8.6 1.5 1.1 2l-.9 1.4 1.9 1.2.9-1.4c.4.1.9.2 1.4.2.4 0 .8-.1 1.2-.2l.8 1.4 1.9-1.1-.8-1.4c.6-.6 1-1.3 1.3-2.2h1.7v-2.3h-1.6zm-4.4 4c-1.6 0-2.8-1.3-2.8-2.8s1.3-2.8 2.8-2.8 2.8 1.3 2.8 2.8-1.3 2.8-2.8 2.8z"/><path d="M9 14.6V9.3h2.1c.1-.3.3-.5.5-.8l-.1-.2H3.8C1.7 8.3 0 10.1 0 12.2V16h11l.5-.8-.3-.6H9z"/></g></svg>